<?xml version="1.0" standalone="no"?><!DOCTYPE svg PUBLIC "-//W3C//DTD SVG 1.1//EN" "http://www.w3.org/Graphics/SVG/1.1/DTD/svg11.dtd"><svg t="1540630946826" class="icon" style="" viewBox="0 0 1024 1024" version="1.1" xmlns="http://www.w3.org/2000/svg" p-id="3244" xmlns:xlink="http://www.w3.org/1999/xlink" width="200" height="200"><defs><style type="text/css"></style></defs><path d="M852.731122 184.999294c-45.52717-45.52717-120.683133-45.52717-166.210303 0l-70.097389 70.097389-427.810868 427.810868c-3.613267 3.613267-5.781228 7.226535-6.503882 12.28511L143.808045 859.957657c-2.16796 8.671842 0.722653 17.343684 6.503882 23.124912 5.058574 5.058574 11.562456 7.949188 18.066337 7.949188 1.445307 0 3.613267 0 5.058574-0.722653l168.378264-34.687368c5.058574-0.722653 9.394495-3.613267 12.28511-6.503881l144.530698-138.749471c10.117149-9.394495 10.117149-26.015526 0.722654-35.410021-9.394495-10.117149-26.015526-10.117149-35.410021-0.722654L325.194072 808.649259l-122.851094 25.292872 27.460833-119.237826 404.685956-404.685956 112.733945 112.733945c9.394495 9.394495 26.015526 9.394495 36.132675 0l70.820042-70.820043c22.402258-22.402258 33.964714-51.308398 33.964714-83.105151s-13.007763-61.425547-35.410021-83.827806z m-35.410021 130.800283l-52.753705 52.753705-94.667608-95.390262 52.753705-52.753705c26.015526-26.015526 68.652082-26.015526 94.667608 0 12.285109 12.285109 19.511644 29.628793 19.511644 47.695131s-7.226535 34.687368-19.511644 47.695131z" fill="#d81e06" p-id="3245"></path><path d="M557.165843 612.087509m-27.460832 0a27.460833 27.460833 0 1 0 54.921665 0 27.460833 27.460833 0 1 0-54.921665 0Z" fill="#d81e06" p-id="3246"></path><path d="M625.095272 544.15808m-27.460833 0a27.460833 27.460833 0 1 0 54.921665 0 27.460833 27.460833 0 1 0-54.921665 0Z" fill="#d81e06" p-id="3247"></path><path d="M693.0247 476.228652m-27.460833 0a27.460833 27.460833 0 1 0 54.921666 0 27.460833 27.460833 0 1 0-54.921666 0Z" fill="#d81e06" p-id="3248"></path></svg>